:SAMPLES-PER-SECOND 30
:FULLY-SPECIFIED
:DEGREES
619
root  -19.9794 37.4576 3.15157 70.8383 -85.825 -85.3832
RightUpLeg  -9.55095 -10.9751 -23.5825
RightLeg  35.4307 -1.28748 -1.22944
RightFoot  27.7281 -4.47278 13.1174
RightToes  -1.16417e-010 0 -3.6325e-017
Spine  22.8913 2.16079 -1.79451
Spine1  2.79916 1.40896 -1.65526
HEad  -19.0454 -0.579997 3.92691
LeftShoulder1  1.15818 -2.61962 -11.7767
LeftArm  -17.5663 35.3216 -46.8951
LeftForeArm  83.5894 -78.9262 -101.259
LeftHand  0.613635 7.17217 37.7038
RightShoulder  0.981056 0.773819 16.3131
RightArm  -9.724 -33.3932 47.6292
RightForeArm  34.3224 71.2996 31.38
RightHand  -2.27361 2.16463 -34.1932
LeftUpLeg  3.14293 -0.0177903 20.8883
LeftLeg  31.3743 3.34617 2.57356
LeftFoot  -15.319 -0.606488 -19.9179
LeftToes  6.91183e-011 3.39355e-011 2.1261e-011
620
root  -19.978 37.7826 2.84139 85.1554 -84.1234 -99.8471
RightUpLeg  -7.66487 -11.7345 -21.4225
RightLeg  32.1758 -0.83947 -0.789986
RightFoot  28.6868 -4.93486 14.0548
RightToes  -1.16417e-010 0 -3.6325e-017
Spine  22.8303 2.10399 -2.75402
Spine1  2.81072 0.707667 0.932499
HEad  -18.0279 1.56366 3.29817
LeftShoulder1  1.20461 -3.0806 -11.0879
LeftArm  -13.734 35.6657 -46.5099
LeftForeArm  95.8342 -78.8206 -108.054
LeftHand  0.55817 6.99618 37.93
RightShoulder  0.973221 0.789736 16.0186
RightArm  -7.25952 -33.1352 47.8772
RightForeArm  37.1037 71.1706 30.5061
RightHand  -2.20992 2.26055 -32.902
LeftUpLeg  5.28469 0.0602472 23.2683
LeftLeg  27.883 3.93531 2.61207
LeftFoot  -13.7798 -0.362268 -20.664
LeftToes  6.91183e-011 3.39355e-011 2.1261e-011
621
root  -20.033 38.1132 2.52944 90.9237 -82.6696 -105.049
RightUpLeg  -5.28028 -11.8991 -19.7099
RightLeg  27.2525 -0.964717 -0.772579
RightFoot  29.6437 -5.45868 15.1043
RightToes  -1.16417e-010 0 -3.6325e-017
Spine  22.2659 1.89845 -3.03555
Spine1  2.04687 0.228269 2.87261
HEad  -15.9932 3.28569 2.6781
LeftShoulder1  1.24933 -3.45468 -10.711
LeftArm  -9.79913 35.8277 -46.1625
LeftForeArm  102.82 -78.9311 -109.989
LeftHand  0.375902 6.47572 37.4527
RightShoulder  0.96346 0.762293 15.9285
RightArm  -4.33279 -33.4818 47.44
RightForeArm  39.6052 71.021 29.6655
RightHand  -2.16321 2.39391 -31.7227
LeftUpLeg  6.88741 -0.218393 25.0016
LeftLeg  23.9818 5.00196 2.7618
LeftFoot  -11.9133 -0.0359708 -21.19
LeftToes  6.91183e-011 3.39355e-011 2.1261e-011
622
root  -20.1496 38.3562 2.15228 93.8211 -81.6986 -106.703
RightUpLeg  -3.00682 -11.5752 -18.2692
RightLeg  21.8431 0.0859695 -0.177985
RightFoot  28.0224 -6.22699 17.8869
RightToes  -1.16417e-010 0 -3.6325e-017
Spine  21.0303 1.58353 -3.27301
Spine1  0.94218 -0.173771 4.30666
HEad  -13.4133 4.91398 2.25235
LeftShoulder1  1.28775 -3.71563 -10.5833
LeftArm  -6.27908 36.2382 -45.7437
LeftForeArm  109.233 -79.1931 -110.428
LeftHand  0.182643 5.92062 36.3449
RightShoulder  0.948062 0.698173 15.9057
RightArm  -1.14934 -33.9767 46.8375
RightForeArm  41.5993 70.8756 28.9574
RightHand  -2.05315 2.34254 -30.3735
LeftUpLeg  7.64186 -0.03788 26.3037
LeftLeg  20.3683 5.62966 2.94369
LeftFoot  -10.108 0.297657 -21.8149
LeftToes  6.91183e-011 3.39355e-011 2.1261e-011
623
root  -20.3022 38.4579 1.67651 95.1286 -81.189 -106.55
RightUpLeg  -1.06315 -11.1458 -17.0243
RightLeg  17.1714 1.13717 0.185281
RightFoot  23.998 -6.95718 22.157
RightToes  -1.16417e-010 0 -3.6325e-017
Spine  19.4373 1.33881 -3.64087
Spine1  -0.0942163 -0.448862 5.25552
HEad  -10.8536 6.21524 2.04962
LeftShoulder1  1.35125 -4.01018 -10.7448
LeftArm  -3.20362 36.5888 -45.2091
LeftForeArm  112.358 -79.661 -107.564
LeftHand  0.0306094 5.45678 35.3623
RightShoulder  0.90736 0.555719 15.676
RightArm  1.7765 -34.4865 46.5486
RightForeArm  42.8222 70.6847 28.3227
RightHand  -1.86975 2.1613 -28.416
LeftUpLeg  7.73445 2.43686 27.7327
LeftLeg  17.4714 3.76745 3.15676
LeftFoot  -8.7563 0.568664 -22.6359
LeftToes  6.91183e-011 3.39355e-011 2.1261e-011
624
root  -20.4454 38.4726 1.18134 95.2223 -80.8606 -105.365
RightUpLeg  0.5582 -11.1606 -15.862
RightLeg  13.5123 1.02064 0.0109706
RightFoot  20.1177 -7.06023 25.1949
RightToes  -1.16417e-010 0 -3.6325e-017
Spine  17.989 1.14141 -3.64899
Spine1  -0.919906 -0.568794 5.70301
HEad  -8.72465 7.02599 1.93302
LeftShoulder1  1.44495 -4.29701 -11.3458
LeftArm  -0.605606 36.4935 -44.6149
LeftForeArm  109.089 -80.2411 -99.2085
LeftHand  -0.117984 4.97863 34.8154
RightShoulder  0.855113 0.369432 15.3817
RightArm  4.27847 -34.6722 46.3871
RightForeArm  42.9995 70.1674 27.2684
RightHand  -1.71107 2.16512 -26.1021
LeftUpLeg  7.60659 5.71106 29.3041
LeftLeg  15.2314 0.845668 3.22913
LeftFoot  -7.72045 0.793017 -23.35
LeftToes  6.91183e-011 3.39355e-011 2.1261e-011
625
root  -20.5449 38.4757 0.756456 94.4997 -80.5801 -103.622
RightUpLeg  1.87175 -11.4524 -14.7855
RightLeg  10.5098 0.224406 -0.190406
RightFoot  17.5994 -6.57905 25.5855
RightToes  -1.16417e-010 0 -3.6325e-017
Spine  16.9889 0.850941 -3.02649
Spine1  -1.66573 -0.634919 5.68809
HEad  -7.05376 7.45569 1.82229
LeftShoulder1  1.52685 -4.40625 -12.2118
LeftArm  1.16983 36.2358 -44.3412
LeftForeArm  101.636 -80.5702 -87.0069
LeftHand  -0.28149 4.43313 34.2294
RightShoulder  0.835931 0.286495 15.3581
RightArm  6.55403 -34.1804 45.9954
RightForeArm  41.982 69.0777 25.5021
RightHand  -1.62748 2.39844 -24.1577
LeftUpLeg  7.4985 8.64862 30.7129
LeftLeg  13.3076 -1.91355 3.22785
LeftFoot  -6.72609 1.01073 -23.7813
LeftToes  6.91183e-011 3.39355e-011 2.1261e-011
626
root  -20.5908 38.4749 0.404514 93.2912 -80.5471 -101.549
RightUpLeg  2.84699 -11.4903 -14.018
RightLeg  7.9712 -0.593312 -0.099663
RightFoot  15.7106 -5.90693 24.6732
RightToes  -1.16417e-010 0 -3.6325e-017
Spine  16.3905 0.472594 -2.17713
Spine1  -2.44918 -0.718174 5.32581
HEad  -5.60158 7.54014 1.73308
LeftShoulder1  1.56583 -4.34982 -12.9114
LeftArm  1.98218 36.2454 -44.7493
LeftForeArm  93.0902 -80.4185 -74.02
LeftHand  -0.42486 3.91977 33.2794
RightShoulder  0.8679 0.392545 15.5964
RightArm  8.5259 -33.1814 45.5598
RightForeArm  39.9436 67.4279 23.2996
RightHand  -1.56728 2.53849 -22.8957
LeftUpLeg  7.33124 10.8025 31.5383
LeftLeg  11.6169 -3.96853 3.30868
LeftFoot  -5.8133 1.21653 -24.1555
LeftToes  6.91183e-011 3.39355e-011 2.1261e-011
627
root  -20.6002 38.4495 0.0883335 92.112 -80.9933 -99.6733
RightUpLeg  3.55663 -11.5193 -13.8878
RightLeg  6.04537 -1.10562 0.136603
RightFoot  13.6593 -5.3581 24.2794
RightToes  -1.16417e-010 0 -3.6325e-017
Spine  15.9704 0.20285 -1.57302
Spine1  -3.12913 -0.711527 4.6743
HEad  -4.17927 7.16267 1.63825
LeftShoulder1  1.57915 -4.29445 -13.2551
LeftArm  2.31609 36.3034 -45.7501
LeftForeArm  81.9723 -79.5308 -60.111
LeftHand  -0.527455 3.52097 32.4038
RightShoulder  0.918584 0.584522 15.8061
RightArm  9.79187 -32.1766 45.5887
RightForeArm  37.325 65.2782 20.9485
RightHand  -1.49176 2.44456 -22.0798
LeftUpLeg  7.19015 12.4459 31.6514
LeftLeg  10.1455 -5.49144 3.46786
LeftFoot  -5.0684 1.398 -24.6168
LeftToes  6.91183e-011 3.39355e-011 2.1261e-011
628
root  -20.6039 38.4023 -0.200529 92.0613 -81.8957 -99.2169
RightUpLeg  4.13616 -11.7768 -14.4671
RightLeg  4.81888 -1.20497 0.316488
RightFoot  11.4196 -4.9499 24.6463
RightToes  -1.16417e-010 0 -3.6325e-017
Spine  15.5978 0.200248 -1.21233
Spine1  -3.50091 -0.4572 3.6019
HEad  -2.76203 6.36697 1.48602
LeftShoulder1  1.5968 -4.32442 -13.4184
LeftArm  2.80258 35.9483 -46.8639
LeftForeArm  68.5002 -77.4337 -45.7211
LeftHand  -0.614566 3.19706 32.1337
RightShoulder  0.948411 0.705235 15.8734
RightArm  10.281 -31.3551 46.2368
RightForeArm  34.6284 62.5587 18.5001
RightHand  -1.43258 2.36309 -21.4464
LeftUpLeg  7.46336 14.1264 31.3408
LeftLeg  8.70106 -6.93968 3.55929
LeftFoot  -4.39407 1.56911 -25.0548
LeftToes  6.91183e-011 3.39355e-011 2.1261e-011
